  0
SECTION
  2
HEADER
  9
$ANGBASE
  50
0.0
  9
$ANGDIR
  70
  1
  9
$MEASUREMENT
  70
0
  0
ENDSEC
  0
SECTION
  2
TABLES
  0
TABLE
  2
LTYPE
  70
4
  0
LTYPE
  5
40F
  2
CONTINUOUS
  70
0
  3
Solid line
  72
65
  73
0
  40
0.0
  0
LTYPE
  5
410
  2
DASHDOT
 70
0
  3
Dash Dot ____ _ ____ _
 72
65
 73
4
 40
2.0
 49
1.25
 49
-0.25
 49
0.25
 49
-0.25
  0
LTYPE
  5
411
  2
DASHED
 70
0
  3
Dashed __ __ __ __ __
 72
65
 73
2
 40
0.75
 49
0.5
 49
-0.25
  0
LTYPE
  5
43B
  2
DOTTED
 70
0
  3
Dotted .  .  .  .
 72
65
 73
2
 40
0.2
 49
0.0
 49
-0.2
  0
ENDTAB
  0
TABLE
  2
STYLE
  70
4
  0
STYLE
  2
KICAD
  70
0
  40
0
  41
1
  42
1
  50
0
  71
0
  3
isocp.shx
  0
STYLE
  2
KICADB
  70
0
  40
0
  41
1
  42
1
  50
0
  71
0
  3
isocp.shx
  0
STYLE
  2
KICADI
  70
0
  40
0
  41
1
  42
1
  50
15
  71
0
  3
isocp.shx
  0
STYLE
  2
KICADBI
  70
0
  40
0
  41
1
  42
1
  50
15
  71
0
  3
isocp.shx
  0
ENDTAB
  0
TABLE
  2
LAYER
  70
30
  0
LAYER
  2
BLACK
  70
0
  62
7
  6
CONTINUOUS
  0
LAYER
  2
GRAY1
  70
0
  62
251
  6
CONTINUOUS
  0
LAYER
  2
GRAY2
  70
0
  62
8
  6
CONTINUOUS
  0
LAYER
  2
GRAY3
  70
0
  62
9
  6
CONTINUOUS
  0
LAYER
  2
WHITE
  70
0
  62
7
  6
CONTINUOUS
  0
LAYER
  2
LYELLOW
  70
0
  62
51
  6
CONTINUOUS
  0
LAYER
  2
BLUE1
  70
0
  62
178
  6
CONTINUOUS
  0
LAYER
  2
GREEN1
  70
0
  62
98
  6
CONTINUOUS
  0
LAYER
  2
CYAN1
  70
0
  62
138
  6
CONTINUOUS
  0
LAYER
  2
RED1
  70
0
  62
18
  6
CONTINUOUS
  0
LAYER
  2
MAGENTA1
  70
0
  62
228
  6
CONTINUOUS
  0
LAYER
  2
BROWN1
  70
0
  62
58
  6
CONTINUOUS
  0
LAYER
  2
BLUE2
  70
0
  62
5
  6
CONTINUOUS
  0
LAYER
  2
GREEN2
  70
0
  62
3
  6
CONTINUOUS
  0
LAYER
  2
CYAN2
  70
0
  62
4
  6
CONTINUOUS
  0
LAYER
  2
RED2
  70
0
  62
1
  6
CONTINUOUS
  0
LAYER
  2
MAGENTA2
  70
0
  62
6
  6
CONTINUOUS
  0
LAYER
  2
BROWN2
  70
0
  62
54
  6
CONTINUOUS
  0
LAYER
  2
BLUE3
  70
0
  62
171
  6
CONTINUOUS
  0
LAYER
  2
GREEN3
  70
0
  62
91
  6
CONTINUOUS
  0
LAYER
  2
CYAN3
  70
0
  62
131
  6
CONTINUOUS
  0
LAYER
  2
RED3
  70
0
  62
11
  6
CONTINUOUS
  0
LAYER
  2
MAGENTA3
  70
0
  62
221
  6
CONTINUOUS
  0
LAYER
  2
YELLOW3
  70
0
  62
2
  6
CONTINUOUS
  0
LAYER
  2
BLUE4
  70
0
  62
5
  6
CONTINUOUS
  0
LAYER
  2
GREEN4
  70
0
  62
3
  6
CONTINUOUS
  0
LAYER
  2
CYAN4
  70
0
  62
4
  6
CONTINUOUS
  0
LAYER
  2
RED4
  70
0
  62
1
  6
CONTINUOUS
  0
LAYER
  2
MAGENTA4
  70
0
  62
6
  6
CONTINUOUS
  0
LAYER
  2
YELLOW4
  70
0
  62
2
  6
CONTINUOUS
  0
ENDTAB
  0
ENDSEC
  0
SECTION
  2
ENTITIES
0
LINE
8
BLACK
6
CONTINUOUS
10
632.879
20
460.484
11
632.888
21
460.484
0
LINE
8
BLACK
6
CONTINUOUS
10
632.888
20
460.484
11
632.896
21
460.481
0
LINE
8
BLACK
6
CONTINUOUS
10
632.896
20
460.481
11
632.905
21
460.479
0
LINE
8
BLACK
6
CONTINUOUS
10
632.905
20
460.479
11
632.912
21
460.475
0
LINE
8
BLACK
6
CONTINUOUS
10
632.912
20
460.475
11
632.921
21
460.472
0
LINE
8
BLACK
6
CONTINUOUS
10
632.921
20
460.472
11
632.928
21
460.466
0
LINE
8
BLACK
6
CONTINUOUS
10
632.928
20
460.466
11
632.935
21
460.462
0
LINE
8
BLACK
6
CONTINUOUS
10
632.935
20
460.462
11
632.941
21
460.455
0
LINE
8
BLACK
6
CONTINUOUS
10
632.941
20
460.455
11
632.948
21
460.449
0
LINE
8
BLACK
6
CONTINUOUS
10
632.948
20
460.449
11
632.952
21
460.442
0
LINE
8
BLACK
6
CONTINUOUS
10
632.952
20
460.442
11
632.958
21
460.435
0
LINE
8
BLACK
6
CONTINUOUS
10
632.958
20
460.435
11
632.961
21
460.426
0
LINE
8
BLACK
6
CONTINUOUS
10
632.961
20
460.426
11
632.965
21
460.419
0
LINE
8
BLACK
6
CONTINUOUS
10
632.965
20
460.419
11
632.967
21
460.41
0
LINE
8
BLACK
6
CONTINUOUS
10
632.967
20
460.41
11
632.97
21
460.402
0
LINE
8
BLACK
6
CONTINUOUS
10
632.97
20
460.402
11
632.97
21
460.393
0
LINE
8
BLACK
6
CONTINUOUS
10
632.97
20
460.393
11
632.97
21
460.393
0
LINE
8
BLACK
6
CONTINUOUS
10
632.97
20
460.393
11
632.97
21
410.401
0
LINE
8
BLACK
6
CONTINUOUS
10
632.97
20
410.401
11
632.97
21
410.401
0
LINE
8
BLACK
6
CONTINUOUS
10
632.97
20
410.401
11
632.97
21
410.392
0
LINE
8
BLACK
6
CONTINUOUS
10
632.97
20
410.392
11
632.967
21
410.384
0
LINE
8
BLACK
6
CONTINUOUS
10
632.967
20
410.384
11
632.965
21
410.375
0
LINE
8
BLACK
6
CONTINUOUS
10
632.965
20
410.375
11
632.961
21
410.368
0
LINE
8
BLACK
6
CONTINUOUS
10
632.961
20
410.368
11
632.958
21
410.359
0
LINE
8
BLACK
6
CONTINUOUS
10
632.958
20
410.359
11
632.952
21
410.352
0
LINE
8
BLACK
6
CONTINUOUS
10
632.952
20
410.352
11
632.948
21
410.345
0
LINE
8
BLACK
6
CONTINUOUS
10
632.948
20
410.345
11
632.941
21
410.339
0
LINE
8
BLACK
6
CONTINUOUS
10
632.941
20
410.339
11
632.935
21
410.332
0
LINE
8
BLACK
6
CONTINUOUS
10
632.935
20
410.332
11
632.928
21
410.328
0
LINE
8
BLACK
6
CONTINUOUS
10
632.928
20
410.328
11
632.921
21
410.322
0
LINE
8
BLACK
6
CONTINUOUS
10
632.921
20
410.322
11
632.912
21
410.319
0
LINE
8
BLACK
6
CONTINUOUS
10
632.912
20
410.319
11
632.905
21
410.315
0
LINE
8
BLACK
6
CONTINUOUS
10
632.905
20
410.315
11
632.896
21
410.313
0
LINE
8
BLACK
6
CONTINUOUS
10
632.896
20
410.313
11
632.888
21
410.31
0
LINE
8
BLACK
6
CONTINUOUS
10
632.888
20
410.31
11
632.879
21
410.31
0
LINE
8
BLACK
6
CONTINUOUS
10
632.879
20
410.31
11
632.879
21
410.31
0
LINE
8
BLACK
6
CONTINUOUS
10
632.879
20
410.31
11
552.071
21
410.31
0
LINE
8
BLACK
6
CONTINUOUS
10
552.071
20
410.31
11
552.045
21
410.315
0
LINE
8
BLACK
6
CONTINUOUS
10
552.045
20
410.315
11
552.015
21
410.332
0
LINE
8
BLACK
6
CONTINUOUS
10
552.015
20
410.332
11
551.992
21
410.359
0
LINE
8
BLACK
6
CONTINUOUS
10
551.992
20
410.359
11
551.98
21
410.392
0
LINE
8
BLACK
6
CONTINUOUS
10
551.98
20
410.392
11
551.98
21
410.428
0
LINE
8
BLACK
6
CONTINUOUS
10
551.98
20
410.428
11
551.98
21
413.079
0
LINE
8
BLACK
6
CONTINUOUS
10
551.98
20
413.079
11
551.98
21
413.079
0
LINE
8
BLACK
6
CONTINUOUS
10
551.98
20
413.079
11
551.98
21
413.088
0
LINE
8
BLACK
6
CONTINUOUS
10
551.98
20
413.088
11
551.983
21
413.096
0
LINE
8
BLACK
6
CONTINUOUS
10
551.983
20
413.096
11
551.985
21
413.105
0
LINE
8
BLACK
6
CONTINUOUS
10
551.985
20
413.105
11
551.989
21
413.112
0
LINE
8
BLACK
6
CONTINUOUS
10
551.989
20
413.112
11
551.992
21
413.121
0
LINE
8
BLACK
6
CONTINUOUS
10
551.992
20
413.121
11
551.998
21
413.128
0
LINE
8
BLACK
6
CONTINUOUS
10
551.998
20
413.128
11
552.002
21
413.135
0
LINE
8
BLACK
6
CONTINUOUS
10
552.002
20
413.135
11
552.009
21
413.141
0
LINE
8
BLACK
6
CONTINUOUS
10
552.009
20
413.141
11
552.015
21
413.148
0
LINE
8
BLACK
6
CONTINUOUS
10
552.015
20
413.148
11
552.022
21
413.152
0
LINE
8
BLACK
6
CONTINUOUS
10
552.022
20
413.152
11
552.029
21
413.158
0
LINE
8
BLACK
6
CONTINUOUS
10
552.029
20
413.158
11
552.038
21
413.161
0
LINE
8
BLACK
6
CONTINUOUS
10
552.038
20
413.161
11
552.045
21
413.165
0
LINE
8
BLACK
6
CONTINUOUS
10
552.045
20
413.165
11
552.054
21
413.167
0
LINE
8
BLACK
6
CONTINUOUS
10
552.054
20
413.167
11
552.062
21
413.17
0
LINE
8
BLACK
6
CONTINUOUS
10
552.062
20
413.17
11
552.071
21
413.17
0
LINE
8
BLACK
6
CONTINUOUS
10
552.071
20
413.17
11
552.071
21
413.17
0
LINE
8
BLACK
6
CONTINUOUS
10
552.071
20
413.17
11
563.45
21
413.17
0
LINE
8
BLACK
6
CONTINUOUS
10
563.45
20
413.17
11
563.45
21
419.38
0
LINE
8
BLACK
6
CONTINUOUS
10
563.45
20
419.38
11
552.051
21
419.38
0
LINE
8
BLACK
6
CONTINUOUS
10
552.051
20
419.38
11
552.051
21
419.38
0
LINE
8
BLACK
6
CONTINUOUS
10
552.051
20
419.38
11
552.042
21
419.38
0
LINE
8
BLACK
6
CONTINUOUS
10
552.042
20
419.38
11
552.034
21
419.383
0
LINE
8
BLACK
6
CONTINUOUS
10
552.034
20
419.383
11
552.025
21
419.385
0
LINE
8
BLACK
6
CONTINUOUS
10
552.025
20
419.385
11
552.018
21
419.389
0
LINE
8
BLACK
6
CONTINUOUS
10
552.018
20
419.389
11
552.009
21
419.392
0
LINE
8
BLACK
6
CONTINUOUS
10
552.009
20
419.392
11
552.002
21
419.398
0
LINE
8
BLACK
6
CONTINUOUS
10
552.002
20
419.398
11
551.995
21
419.402
0
LINE
8
BLACK
6
CONTINUOUS
10
551.995
20
419.402
11
551.989
21
419.409
0
LINE
8
BLACK
6
CONTINUOUS
10
551.989
20
419.409
11
551.982
21
419.415
0
LINE
8
BLACK
6
CONTINUOUS
10
551.982
20
419.415
11
551.978
21
419.422
0
LINE
8
BLACK
6
CONTINUOUS
10
551.978
20
419.422
11
551.972
21
419.429
0
LINE
8
BLACK
6
CONTINUOUS
10
551.972
20
419.429
11
551.969
21
419.438
0
LINE
8
BLACK
6
CONTINUOUS
10
551.969
20
419.438
11
551.965
21
419.445
0
LINE
8
BLACK
6
CONTINUOUS
10
551.965
20
419.445
11
551.963
21
419.454
0
LINE
8
BLACK
6
CONTINUOUS
10
551.963
20
419.454
11
551.96
21
419.462
0
LINE
8
BLACK
6
CONTINUOUS
10
551.96
20
419.462
11
551.96
21
419.498
0
LINE
8
BLACK
6
CONTINUOUS
10
551.96
20
419.498
11
551.96
21
424.299
0
LINE
8
BLACK
6
CONTINUOUS
10
551.96
20
424.299
11
551.96
21
424.299
0
LINE
8
BLACK
6
CONTINUOUS
10
551.96
20
424.299
11
551.96
21
424.308
0
LINE
8
BLACK
6
CONTINUOUS
10
551.96
20
424.308
11
551.963
21
424.316
0
LINE
8
BLACK
6
CONTINUOUS
10
551.963
20
424.316
11
551.965
21
424.325
0
LINE
8
BLACK
6
CONTINUOUS
10
551.965
20
424.325
11
551.969
21
424.332
0
LINE
8
BLACK
6
CONTINUOUS
10
551.969
20
424.332
11
551.972
21
424.341
0
LINE
8
BLACK
6
CONTINUOUS
10
551.972
20
424.341
11
551.978
21
424.348
0
LINE
8
BLACK
6
CONTINUOUS
10
551.978
20
424.348
11
551.982
21
424.355
0
LINE
8
BLACK
6
CONTINUOUS
10
551.982
20
424.355
11
551.989
21
424.361
0
LINE
8
BLACK
6
CONTINUOUS
10
551.989
20
424.361
11
551.995
21
424.368
0
LINE
8
BLACK
6
CONTINUOUS
10
551.995
20
424.368
11
552.002
21
424.372
0
LINE
8
BLACK
6
CONTINUOUS
10
552.002
20
424.372
11
552.009
21
424.378
0
LINE
8
BLACK
6
CONTINUOUS
10
552.009
20
424.378
11
552.018
21
424.381
0
LINE
8
BLACK
6
CONTINUOUS
10
552.018
20
424.381
11
552.025
21
424.385
0
LINE
8
BLACK
6
CONTINUOUS
10
552.025
20
424.385
11
552.034
21
424.387
0
LINE
8
BLACK
6
CONTINUOUS
10
552.034
20
424.387
11
552.042
21
424.39
0
LINE
8
BLACK
6
CONTINUOUS
10
552.042
20
424.39
11
552.051
21
424.39
0
LINE
8
BLACK
6
CONTINUOUS
10
552.051
20
424.39
11
552.051
21
424.39
0
LINE
8
BLACK
6
CONTINUOUS
10
552.051
20
424.39
11
563.43
21
424.39
0
LINE
8
BLACK
6
CONTINUOUS
10
563.43
20
424.39
11
563.43
21
430.61
0
LINE
8
BLACK
6
CONTINUOUS
10
563.43
20
430.61
11
552.051
21
430.61
0
LINE
8
BLACK
6
CONTINUOUS
10
552.051
20
430.61
11
552.051
21
430.61
0
LINE
8
BLACK
6
CONTINUOUS
10
552.051
20
430.61
11
552.032
21
430.61
0
LINE
8
BLACK
6
CONTINUOUS
10
552.032
20
430.61
11
551.999
21
430.622
0
LINE
8
BLACK
6
CONTINUOUS
10
551.999
20
430.622
11
551.972
21
430.645
0
LINE
8
BLACK
6
CONTINUOUS
10
551.972
20
430.645
11
551.955
21
430.675
0
LINE
8
BLACK
6
CONTINUOUS
10
551.955
20
430.675
11
551.95
21
430.701
0
LINE
8
BLACK
6
CONTINUOUS
10
551.95
20
430.701
11
551.95
21
460.389
0
LINE
8
BLACK
6
CONTINUOUS
10
551.95
20
460.389
11
551.95
21
460.389
0
LINE
8
BLACK
6
CONTINUOUS
10
551.95
20
460.389
11
551.95
21
460.402
0
LINE
8
BLACK
6
CONTINUOUS
10
551.95
20
460.402
11
551.954
21
460.414
0
LINE
8
BLACK
6
CONTINUOUS
10
551.954
20
460.414
11
551.955
21
460.415
0
LINE
8
BLACK
6
CONTINUOUS
10
551.955
20
460.415
11
551.955
21
460.416
0
LINE
8
BLACK
6
CONTINUOUS
10
551.955
20
460.416
11
551.962
21
460.435
0
LINE
8
BLACK
6
CONTINUOUS
10
551.962
20
460.435
11
551.985
21
460.462
0
LINE
8
BLACK
6
CONTINUOUS
10
551.985
20
460.462
11
552.015
21
460.479
0
LINE
8
BLACK
6
CONTINUOUS
10
552.015
20
460.479
11
552.041
21
460.484
0
LINE
8
BLACK
6
CONTINUOUS
10
552.041
20
460.484
11
632.879
21
460.484
0
LINE
8
BLACK
6
CONTINUOUS
10
632.879
20
460.484
11
632.879
21
460.484
0
LINE
8
BLACK
6
CONTINUOUS
10
552.15
20
460.284
11
552.15
21
430.81
0
LINE
8
BLACK
6
CONTINUOUS
10
552.15
20
430.81
11
563.539
21
430.81
0
LINE
8
BLACK
6
CONTINUOUS
10
563.539
20
430.81
11
563.539
21
430.81
0
LINE
8
BLACK
6
CONTINUOUS
10
563.539
20
430.81
11
563.548
21
430.81
0
LINE
8
BLACK
6
CONTINUOUS
10
563.548
20
430.81
11
563.556
21
430.807
0
LINE
8
BLACK
6
CONTINUOUS
10
563.556
20
430.807
11
563.565
21
430.805
0
LINE
8
BLACK
6
CONTINUOUS
10
563.565
20
430.805
11
563.572
21
430.801
0
LINE
8
BLACK
6
CONTINUOUS
10
563.572
20
430.801
11
563.581
21
430.798
0
LINE
8
BLACK
6
CONTINUOUS
10
563.581
20
430.798
11
563.588
21
430.792
0
LINE
8
BLACK
6
CONTINUOUS
10
563.588
20
430.792
11
563.595
21
430.788
0
LINE
8
BLACK
6
CONTINUOUS
10
563.595
20
430.788
11
563.601
21
430.781
0
LINE
8
BLACK
6
CONTINUOUS
10
563.601
20
430.781
11
563.608
21
430.775
0
LINE
8
BLACK
6
CONTINUOUS
10
563.608
20
430.775
11
563.612
21
430.768
0
LINE
8
BLACK
6
CONTINUOUS
10
563.612
20
430.768
11
563.618
21
430.761
0
LINE
8
BLACK
6
CONTINUOUS
10
563.618
20
430.761
11
563.621
21
430.752
0
LINE
8
BLACK
6
CONTINUOUS
10
563.621
20
430.752
11
563.625
21
430.745
0
LINE
8
BLACK
6
CONTINUOUS
10
563.625
20
430.745
11
563.627
21
430.736
0
LINE
8
BLACK
6
CONTINUOUS
10
563.627
20
430.736
11
563.63
21
430.728
0
LINE
8
BLACK
6
CONTINUOUS
10
563.63
20
430.728
11
563.63
21
430.719
0
LINE
8
BLACK
6
CONTINUOUS
10
563.63
20
430.719
11
563.63
21
430.719
0
LINE
8
BLACK
6
CONTINUOUS
10
563.63
20
430.719
11
563.63
21
424.281
0
LINE
8
BLACK
6
CONTINUOUS
10
563.63
20
424.281
11
563.63
21
424.281
0
LINE
8
BLACK
6
CONTINUOUS
10
563.63
20
424.281
11
563.63
21
424.272
0
LINE
8
BLACK
6
CONTINUOUS
10
563.63
20
424.272
11
563.627
21
424.264
0
LINE
8
BLACK
6
CONTINUOUS
10
563.627
20
424.264
11
563.625
21
424.255
0
LINE
8
BLACK
6
CONTINUOUS
10
563.625
20
424.255
11
563.621
21
424.248
0
LINE
8
BLACK
6
CONTINUOUS
10
563.621
20
424.248
11
563.618
21
424.239
0
LINE
8
BLACK
6
CONTINUOUS
10
563.618
20
424.239
11
563.612
21
424.232
0
LINE
8
BLACK
6
CONTINUOUS
10
563.612
20
424.232
11
563.608
21
424.225
0
LINE
8
BLACK
6
CONTINUOUS
10
563.608
20
424.225
11
563.601
21
424.219
0
LINE
8
BLACK
6
CONTINUOUS
10
563.601
20
424.219
11
563.595
21
424.212
0
LINE
8
BLACK
6
CONTINUOUS
10
563.595
20
424.212
11
563.588
21
424.208
0
LINE
8
BLACK
6
CONTINUOUS
10
563.588
20
424.208
11
563.581
21
424.202
0
LINE
8
BLACK
6
CONTINUOUS
10
563.581
20
424.202
11
563.572
21
424.199
0
LINE
8
BLACK
6
CONTINUOUS
10
563.572
20
424.199
11
563.565
21
424.195
0
LINE
8
BLACK
6
CONTINUOUS
10
563.565
20
424.195
11
563.556
21
424.193
0
LINE
8
BLACK
6
CONTINUOUS
10
563.556
20
424.193
11
563.548
21
424.19
0
LINE
8
BLACK
6
CONTINUOUS
10
563.548
20
424.19
11
563.539
21
424.19
0
LINE
8
BLACK
6
CONTINUOUS
10
563.539
20
424.19
11
563.539
21
424.19
0
LINE
8
BLACK
6
CONTINUOUS
10
563.539
20
424.19
11
552.16
21
424.19
0
LINE
8
BLACK
6
CONTINUOUS
10
552.16
20
424.19
11
552.16
21
419.58
0
LINE
8
BLACK
6
CONTINUOUS
10
552.16
20
419.58
11
563.559
21
419.58
0
LINE
8
BLACK
6
CONTINUOUS
10
563.559
20
419.58
11
563.559
21
419.58
0
LINE
8
BLACK
6
CONTINUOUS
10
563.559
20
419.58
11
563.568
21
419.58
0
LINE
8
BLACK
6
CONTINUOUS
10
563.568
20
419.58
11
563.576
21
419.577
0
LINE
8
BLACK
6
CONTINUOUS
10
563.576
20
419.577
11
563.585
21
419.575
0
LINE
8
BLACK
6
CONTINUOUS
10
563.585
20
419.575
11
563.592
21
419.571
0
LINE
8
BLACK
6
CONTINUOUS
10
563.592
20
419.571
11
563.601
21
419.568
0
LINE
8
BLACK
6
CONTINUOUS
10
563.601
20
419.568
11
563.608
21
419.562
0
LINE
8
BLACK
6
CONTINUOUS
10
563.608
20
419.562
11
563.615
21
419.558
0
LINE
8
BLACK
6
CONTINUOUS
10
563.615
20
419.558
11
563.621
21
419.551
0
LINE
8
BLACK
6
CONTINUOUS
10
563.621
20
419.551
11
563.628
21
419.545
0
LINE
8
BLACK
6
CONTINUOUS
10
563.628
20
419.545
11
563.632
21
419.538
0
LINE
8
BLACK
6
CONTINUOUS
10
563.632
20
419.538
11
563.638
21
419.531
0
LINE
8
BLACK
6
CONTINUOUS
10
563.638
20
419.531
11
563.641
21
419.522
0
LINE
8
BLACK
6
CONTINUOUS
10
563.641
20
419.522
11
563.645
21
419.515
0
LINE
8
BLACK
6
CONTINUOUS
10
563.645
20
419.515
11
563.647
21
419.506
0
LINE
8
BLACK
6
CONTINUOUS
10
563.647
20
419.506
11
563.65
21
419.498
0
LINE
8
BLACK
6
CONTINUOUS
10
563.65
20
419.498
11
563.65
21
419.489
0
LINE
8
BLACK
6
CONTINUOUS
10
563.65
20
419.489
11
563.65
21
419.489
0
LINE
8
BLACK
6
CONTINUOUS
10
563.65
20
419.489
11
563.65
21
413.061
0
LINE
8
BLACK
6
CONTINUOUS
10
563.65
20
413.061
11
563.65
21
413.061
0
LINE
8
BLACK
6
CONTINUOUS
10
563.65
20
413.061
11
563.65
21
413.052
0
LINE
8
BLACK
6
CONTINUOUS
10
563.65
20
413.052
11
563.647
21
413.044
0
LINE
8
BLACK
6
CONTINUOUS
10
563.647
20
413.044
11
563.645
21
413.035
0
LINE
8
BLACK
6
CONTINUOUS
10
563.645
20
413.035
11
563.641
21
413.028
0
LINE
8
BLACK
6
CONTINUOUS
10
563.641
20
413.028
11
563.638
21
413.019
0
LINE
8
BLACK
6
CONTINUOUS
10
563.638
20
413.019
11
563.632
21
413.012
0
LINE
8
BLACK
6
CONTINUOUS
10
563.632
20
413.012
11
563.628
21
413.005
0
LINE
8
BLACK
6
CONTINUOUS
10
563.628
20
413.005
11
563.621
21
412.999
0
LINE
8
BLACK
6
CONTINUOUS
10
563.621
20
412.999
11
563.615
21
412.992
0
LINE
8
BLACK
6
CONTINUOUS
10
563.615
20
412.992
11
563.608
21
412.988
0
LINE
8
BLACK
6
CONTINUOUS
10
563.608
20
412.988
11
563.601
21
412.982
0
LINE
8
BLACK
6
CONTINUOUS
10
563.601
20
412.982
11
563.592
21
412.979
0
LINE
8
BLACK
6
CONTINUOUS
10
563.592
20
412.979
11
563.585
21
412.975
0
LINE
8
BLACK
6
CONTINUOUS
10
563.585
20
412.975
11
563.576
21
412.973
0
LINE
8
BLACK
6
CONTINUOUS
10
563.576
20
412.973
11
563.568
21
412.97
0
LINE
8
BLACK
6
CONTINUOUS
10
563.568
20
412.97
11
563.559
21
412.97
0
LINE
8
BLACK
6
CONTINUOUS
10
563.559
20
412.97
11
563.559
21
412.97
0
LINE
8
BLACK
6
CONTINUOUS
10
563.559
20
412.97
11
552.18
21
412.97
0
LINE
8
BLACK
6
CONTINUOUS
10
552.18
20
412.97
11
552.18
21
410.51
0
LINE
8
BLACK
6
CONTINUOUS
10
552.18
20
410.51
11
632.77
21
410.51
0
LINE
8
BLACK
6
CONTINUOUS
10
632.77
20
410.51
11
632.77
21
460.284
0
LINE
8
BLACK
6
CONTINUOUS
10
632.77
20
460.284
11
552.15
21
460.284
  0
ENDSEC
  0
EOF
